<svg width="128" height="128" viewBox="0 0 128 128" fill="none" xmlns="http://www.w3.org/2000/svg">
  <defs>
    <linearGradient id="jellyBellTab" x1="20" y1="20" x2="108" y2="70" gradientUnits="userSpaceOnUse">
      <stop offset="0%" stop-color="#38BDF8"/>
      <stop offset="50%" stop-color="#818CF8"/>
      <stop offset="100%" stop-color="#C084FC"/>
    </linearGradient>
    <linearGradient id="jellyGlowTab" x1="64" y1="10" x2="64" y2="118" gradientUnits="userSpaceOnUse">
      <stop offset="0%" stop-color="#60A5FA" stop-opacity="0.9"/>
      <stop offset="100%" stop-color="#A855F7" stop-opacity="0.2"/>
    </linearGradient>
  </defs>

  <!-- Dark Background Badge -->
  <rect width="128" height="128" rx="32" fill="#06050F"/>

  <!-- Outer Glow -->
  <circle cx="64" cy="50" r="42" fill="url(#jellyGlowTab)" opacity="0.4"/>

  <!-- Dome -->
  <path d="M 28 58 C 28 28, 100 28, 100 58 C 100 66, 88 68, 80 64 C 72 60, 68 66, 64 64 C 60 62, 56 60, 48 64 C 40 68, 28 66, 28 58 Z" 
        fill="url(#jellyBellTab)" 
        stroke="#E0F2FE" 
        stroke-width="2.5"/>

  <!-- Inner Bioluminescent Core -->
  <ellipse cx="64" cy="46" rx="22" ry="12" fill="#E0F2FE" opacity="0.6"/>
  <circle cx="52" cy="44" r="3" fill="#FFFFFF"/>
  <circle cx="64" cy="42" r="4" fill="#FFFFFF"/>
  <circle cx="76" cy="44" r="3" fill="#FFFFFF"/>

  <!-- Tentacles -->
  <path d="M 36 65 Q 32 82 38 102 T 34 118" stroke="#38BDF8" stroke-width="3.5" stroke-linecap="round" fill="none"/>
  <path d="M 48 66 Q 54 85 46 104 T 52 120" stroke="#818CF8" stroke-width="4" stroke-linecap="round" fill="none"/>
  <path d="M 64 65 Q 60 88 68 106 T 64 122" stroke="#C084FC" stroke-width="4.5" stroke-linecap="round" fill="none"/>
  <path d="M 80 66 Q 74 85 82 104 T 76 120" stroke="#818CF8" stroke-width="4" stroke-linecap="round" fill="none"/>
  <path d="M 92 65 Q 96 82 90 102 T 94 118" stroke="#38BDF8" stroke-width="3.5" stroke-linecap="round" fill="none"/>
</svg>
